<?xml version="1.0" encoding="utf-8"?>
<!-- Generator: Adobe Illustrator 24.0.2, SVG Export Plug-In . SVG Version: 6.00 Build 0)  -->
<svg version="1.1" id="Layer_1" xmlns="http://www.w3.org/2000/svg" xmlns:xlink="http://www.w3.org/1999/xlink" x="0px" y="0px"
	 viewBox="0 0 85 120" style="enable-background:new 0 0 85 120;" xml:space="preserve">
<style type="text/css">
	.st0{fill:#B4B4B4;}
</style>
<polygon class="st0" points="58.2,58.5 44,58.5 44,44.3 41,44.3 41,58.5 26.8,58.5 26.8,61.5 41,61.5 41,75.7 44,75.7 44,61.5 
	58.2,61.5 "/>
<polygon class="st0" points="55.5,2 83,2 83,29.6 85,29.6 85,0 55.5,0 "/>
<polygon class="st0" points="2,29.6 2,2 28.7,2 28.7,0 0,0 0,29.6 "/>
<polygon class="st0" points="28.7,118 2,118 2,87.9 0,87.9 0,120 28.7,120 "/>
<polygon class="st0" points="83,87.9 83,118 55.5,118 55.5,120 85,120 85,87.9 "/>
</svg>
