<?xml version="1.0" encoding="utf-8"?>
<!-- Generator: Adobe Illustrator 24.0.2, SVG Export Plug-In . SVG Version: 6.00 Build 0)  -->
<svg version="1.1" id="Layer_1" xmlns="http://www.w3.org/2000/svg" xmlns:xlink="http://www.w3.org/1999/xlink" x="0px" y="0px"
	 viewBox="0 0 42 40" style="enable-background:new 0 0 42 40;" xml:space="preserve">
<style type="text/css">
	.st0{fill:#ABD7F2;}
</style>
<title>star-full</title>
<path class="st0" d="M21,0c-0.1,0-0.2,0.1-0.3,0.2L15.9,15H0.3C0.1,15,0,15.1,0,15.3c0,0.1,0,0.2,0.1,0.2l12.6,9.2L7.9,39.6
	c0,0.2,0,0.3,0.2,0.4c0.1,0,0.2,0,0.3,0L21,30.8L33.6,40c0.2,0,0.4,0,0.4-0.1c0.1-0.1,0.1-0.2,0-0.3l-4.8-14.9l12.6-9.2
	c0.1-0.1,0.2-0.3,0.1-0.4C41.8,15,41.8,15,41.7,15H26.1L21.3,0.2C21.3,0.1,21.1,0,21,0z"/>
</svg>
